# Blender v2.79 (sub 0) OBJ File: ''
# www.blender.org
mtllib world2.mtl
o Cube
v 3.842365 -6.057695 -5.343325
v 3.842365 -6.057695 5.343326
v -3.752079 -6.057695 5.343325
v -3.752078 -6.057695 -5.343328
v 3.842367 6.057695 -5.343323
v 3.842362 6.057695 5.343329
v -3.752080 6.057695 5.343324
v -3.752079 6.057695 -5.343326
vn 0.0000 -1.0000 0.0000
vn -0.0000 -0.0000 1.0000
vn -1.0000 -0.0000 -0.0000
vn 0.0000 0.0000 -1.0000
usemtl Material
s off
f 1//1 2//1 3//1 4//1
f 2//2 6//2 7//2 3//2
f 3//3 7//3 8//3 4//3
f 5//4 1//4 4//4 8//4
l 5 6
